{"asset":{"generator":"3D Builder","version":"2.0"},"scene":0,"scenes":[{"nodes":[0,1]}],"nodes":[{"mesh":0,"matrix":[0.787401020526886,0,0,0,0,-9.38655162485702E-8,-0.78740090131759644,0,0,0.78740090131759644,-4.1066122946631367E-8,0,0.057396266609430313,0.040000058710575104,-0.073422938585281372,1]},{"mesh":1,"matrix":[0.57284998893737793,0,0,0,0,-6.8288919408132642E-8,-0.572848916053772,0,0,0.572848916053772,-8.9970718875065359E-8,0,-0.015598027035593987,0.025728482753038406,-0.046106941998004913,1]}],"meshes":[{"primitives":[{"attributes":{"POSITION":0},"mode":4,"indices":1,"material":0}]},{"primitives":[{"attributes":{"POSITION":2},"mode":4,"indices":3,"material":1}]}],"materials":[{"name":"Orange","pbrMetallicRoughness":{"baseColorFactor":[1,0.21223078668117523,0.018500218167901039,1],"metallicFactor":0,"roughnessFactor":1},"alphaMode":"OPAQUE"},{"name":"Turquoise","pbrMetallicRoughness":{"baseColorFactor":[0,0.3515326976776123,0.80695247650146484,1],"metallicFactor":0,"roughnessFactor":1},"alphaMode":"OPAQUE"}],"accessors":[{"bufferView":0,"byteOffset":0,"count":97,"componentType":5126,"type":"VEC3","min":[-0.10961300134658813,-0.118647001683712,-9.90071029605133E-8],"max":[-0.058812599629163742,-0.067847400903701782,0.0507998988032341]},{"bufferView":1,"byteOffset":0,"count":570,"componentType":5125,"type":"SCALAR"},{"bufferView":2,"byteOffset":0,"count":240,"componentType":5126,"type":"VEC3","min":[-0.023243602365255356,-0.11540000885725021,-0.044913202524185181],"max":[0.046582803130149841,-0.045573603361845016,0.024913201108574867]},{"bufferView":3,"byteOffset":0,"count":1428,"componentType":5125,"type":"SCALAR"}],"bufferViews":[{"buffer":0,"byteOffset":0,"byteLength":1164,"byteStride":12,"target":34962},{"buffer":0,"byteOffset":1164,"byteLength":2280,"target":34963},{"buffer":0,"byteOffset":3444,"byteLength":2880,"byteStride":12,"target":34962},{"buffer":0,"byteOffset":6324,"byteLength":5712,"target":34963}],"buffers":[{"byteLength":12036,"uri":"testing.bin"}]}