{"asset":{"generator":"3D Builder","version":"2.0"},"scene":0,"scenes":[{"nodes":[0]}],"nodes":[{"children":[1,2,3]},{"mesh":0,"matrix":[0.039370067417621613,9.3865564210204866E-9,-2.3466424359241955E-9,0,-9.3865573091989063E-9,0.039370059967041016,-1.1733192195606534E-8,0,2.3466448784148497E-9,1.1733193971963374E-8,0.039370063692331314,0,6.4863044713092677E-8,-0.0071488195098936558,-0.17275939881801605,1]},{"mesh":1,"matrix":[0.039370067417621613,9.3865564210204866E-9,-2.3466424359241955E-9,0,-9.3865573091989063E-9,0.039370059967041016,-1.1733192195606534E-8,0,2.3466448784148497E-9,1.1733193971963374E-8,0.039370063692331314,0,6.4863044713092677E-8,-0.0071488195098936558,-0.17275939881801605,1]},{"mesh":2,"matrix":[0.039370067417621613,9.3865564210204866E-9,-2.3466424359241955E-9,0,-9.3865573091989063E-9,0.039370059967041016,-1.1733192195606534E-8,0,2.3466448784148497E-9,1.1733193971963374E-8,0.039370063692331314,0,6.4863044713092677E-8,-0.0071488195098936558,-0.17275939881801605,1]}],"meshes":[{"primitives":[{"attributes":{"POSITION":0},"mode":4,"indices":1,"material":0}]},{"primitives":[{"attributes":{"POSITION":2},"mode":4,"indices":3,"material":0}]},{"primitives":[{"attributes":{"POSITION":4},"mode":4,"indices":5,"material":0}]}],"materials":[{"name":"Default","pbrMetallicRoughness":{"baseColorFactor":[0.50288659334182739,0.50288659334182739,0.50288659334182739,1],"metallicFactor":0,"roughnessFactor":1},"alphaMode":"OPAQUE"}],"accessors":[{"bufferView":0,"byteOffset":0,"count":1130,"componentType":5126,"type":"VEC3","min":[-12.29462718963623,0.18157920241355896,-1.8344134092330933],"max":[7.0600738525390625,8.5945281982421875,1.834481954574585]},{"bufferView":1,"byteOffset":0,"count":6840,"componentType":5125,"type":"SCALAR"},{"bufferView":2,"byteOffset":0,"count":5,"componentType":5126,"type":"VEC3","min":[6.5864620208740234,7.3465313911437988,0.39177548885345459],"max":[6.7372360229492187,7.603853702545166,0.85987132787704468]},{"bufferView":3,"byteOffset":0,"count":18,"componentType":5125,"type":"SCALAR"},{"bufferView":4,"byteOffset":0,"count":5,"componentType":5126,"type":"VEC3","min":[6.5864620208740234,7.3465313911437988,-0.85980254411697388],"max":[6.7372360229492187,7.603853702545166,-0.391803503036499]},{"bufferView":5,"byteOffset":0,"count":18,"componentType":5125,"type":"SCALAR"}],"bufferViews":[{"buffer":0,"byteOffset":0,"byteLength":13560,"byteStride":12,"target":34962},{"buffer":0,"byteOffset":13560,"byteLength":27360,"target":34963},{"buffer":0,"byteOffset":40920,"byteLength":60,"byteStride":12,"target":34962},{"buffer":0,"byteOffset":40980,"byteLength":72,"target":34963},{"buffer":0,"byteOffset":41052,"byteLength":60,"byteStride":12,"target":34962},{"buffer":0,"byteOffset":41112,"byteLength":72,"target":34963}],"buffers":[{"byteLength":41184,"uri":"cat.bin"}]}