{"asset":{"generator":"3D Builder","version":"2.0"},"scene":0,"scenes":[{"nodes":[0]}],"nodes":[{"mesh":0,"matrix":[129.48919677734375,0,0,0,0,-1.5436315152328461E-5,-129.48918151855469,0,0,129.48918151855469,-1.5436315152328461E-5,0,0.014369571581482887,3.2063589561204253E-9,0.02689688466489315,1]}],"meshes":[{"primitives":[{"attributes":{"POSITION":0,"TEXCOORD_0":1},"mode":4,"indices":2,"material":0}]}],"materials":[{"pbrMetallicRoughness":{"baseColorFactor":[1,1,1,1],"metallicFactor":0,"roughnessFactor":1,"baseColorTexture":{"index":0,"texCoord":0}},"alphaMode":"OPAQUE"}],"textures":[{"source":0,"sampler":0}],"images":[{"uri":"Cat_diffuse.jpg"}],"samplers":[{"magFilter":9729,"wrapS":10497,"wrapT":10497}],"accessors":[{"bufferView":0,"byteOffset":0,"count":42774,"componentType":5126,"type":"VEC3","min":[-0.00015945103950798512,-0.00056528695859014988,-2.3101165145850318E-14],"max":[0.00015911465743556619,0.00098052958492189646,0.00095507840160280466]},{"bufferView":1,"byteOffset":0,"count":42774,"componentType":5126,"type":"VEC2"},{"bufferView":2,"byteOffset":0,"count":209520,"componentType":5125,"type":"SCALAR"}],"bufferViews":[{"buffer":0,"byteOffset":0,"byteLength":513288,"byteStride":12,"target":34962},{"buffer":0,"byteOffset":513288,"byteLength":342192,"byteStride":8,"target":34962},{"buffer":0,"byteOffset":855480,"byteLength":838080,"target":34963}],"buffers":[{"byteLength":1693560,"uri":"cat.bin"}]}